<?xml version="1.0" encoding="UTF-8" standalone="no"?>
<svg width="320" height="320" viewBox="0 0 320 320" version="1.1" xmlns="http://www.w3.org/2000/svg">
  <defs>
    <!-- Speech bubble path used for clipping the stripes -->
    <clipPath id="bubble-clip">
      <path d="
        M 60 40
        H 260
        C 276 40 290 54 290 70
        V 200
        C 290 216 276 230 260 230
        H 150
        L 120 270
        L 120 230
        H 60
        C 44 230 30 216 30 200
        V 70
        C 30 54 44 40 60 40
        Z" />
    </clipPath>
  </defs>

  <!-- Fill stripes clipped to the bubble shape -->
  <g clip-path="url(#bubble-clip)">
    <rect x="30" y="40" width="260" height="63" fill="#000000"/>
    <rect x="30" y="103" width="260" height="63" fill="#DD0000"/>
    <rect x="30" y="166" width="260" height="140" fill="#FFCE00"/>
  </g>

  <!-- Bubble outline on top -->
  <path d="
    M 60 40
    H 260
    C 276 40 290 54 290 70
    V 200
    C 290 216 276 230 260 230
    H 150
    L 120 270
    L 120 230
    H 60
    C 44 230 30 216 30 200
    V 70
    C 30 54 44 40 60 40
    Z"
    fill="none" stroke="#000000" stroke-width="10" stroke-linejoin="round" stroke-linecap="round"/>
</svg>
