<?xml version="1.0" encoding="UTF-8" standalone="no"?>
<svg width="256" height="256" viewBox="0 0 256 256" version="1.1" xmlns="http://www.w3.org/2000/svg">
  <defs>
    <!-- Speech bubble path used for clipping the stripes -->
    <clipPath id="bubble-clip">
      <path d="
        M 48 32
        H 208
        C 220 32 228 40 228 52
        V 164
        C 228 176 220 184 208 184
        H 128
        L 100 220
        L 100 184
        H 48
        C 36 184 28 176 28 164
        V 52
        C 28 40 36 32 48 32
        Z" />
    </clipPath>
  </defs>

  <!-- Fill stripes clipped to the bubble shape -->
  <g clip-path="url(#bubble-clip)">
    <rect x="28" y="32" width="200" height="50" fill="#000000"/>
    <rect x="28" y="82" width="200" height="50" fill="#DD0000"/>
    <rect x="28" y="132" width="200" height="100" fill="#FFCE00"/>
  </g>

  <!-- Bubble outline on top -->
  <path d="
    M 48 32
    H 208
    C 220 32 228 40 228 52
    V 164
    C 228 176 220 184 208 184
    H 128
    L 100 220
    L 100 184
    H 48
    C 36 184 28 176 28 164
    V 52
    C 28 40 36 32 48 32
    Z"
    fill="none" stroke="#000000" stroke-width="8" stroke-linejoin="round" stroke-linecap="round"/>
</svg>
